<svg width="24" height="24" viewBox="0 0 24 24" fill="none" xmlns="http://www.w3.org/2000/svg">
<path d="M12.001 0C18.6281 0.000263871 24.0008 5.37286 24.001 12C24.001 12.8726 23.9376 13.6706 23.7607 14.4902L23.7197 14.6328C23.6412 15.0066 23.5146 15.6108 23.3418 16.2217L23.3408 16.2246C23.2976 16.3772 23.2511 16.5307 23.2021 16.6807C22.9215 17.541 22.5481 18.2996 22.0889 18.2998C21.7621 18.2998 21.6005 17.9675 21.4326 17.6221C21.2511 17.2486 21.0615 16.8604 20.6484 16.8604C19.8534 16.8605 19.2092 17.5048 19.209 18.2998H19.2061V20.9863H19.2041C19.1795 21.7551 18.5433 22.3709 17.7607 22.3711C16.9896 22.371 16.3622 21.7735 16.3203 21.0205V19.4375H16.3184C16.2941 18.6762 15.6705 18.0664 14.9033 18.0664C14.1362 18.0664 13.5126 18.6762 13.4883 19.4375H13.4863V19.5811C13.3765 20.2975 12.7599 20.8465 12.0127 20.8467C11.2246 20.8466 10.5824 20.2358 10.5264 19.4619V18.4189H10.5244C10.5001 17.5167 9.87459 16.7933 9.10547 16.793C8.33613 16.793 7.71082 17.5165 7.68652 18.4189H7.68359V22.3613C7.64136 23.1173 7.01749 23.7175 6.25098 23.7178C5.47253 23.7176 4.84085 23.0987 4.81641 22.3262H4.81348V18.2998H4.80859C4.80836 17.5047 4.16331 16.8604 3.36816 16.8604C2.98964 16.8604 2.86315 16.8874 2.73047 17.2295C2.58462 17.6056 2.43126 18 1.92871 18C1.33153 18 0.960665 17.2405 0.71582 16.3799C0.560084 15.8325 0.46005 15.5711 0.363281 15.0107C0.351069 14.94 0.332837 14.8403 0.317383 14.7529C0.10993 13.869 0 12.9472 0 12C0.000131936 5.3727 5.37364 0 12.001 0Z" fill="black"/>
</svg>
