<svg width="24" height="24" viewBox="0 0 24 24" fill="none" xmlns="http://www.w3.org/2000/svg">
<path d="M12.001 0C18.6281 0.000263871 24.0008 5.37286 24.001 12C24.001 12.8726 23.9376 13.6706 23.7607 14.4902L23.7197 14.6328C23.6412 15.0066 23.5146 15.6108 23.3418 16.2217L23.3408 16.2246C23.2976 16.3772 23.2511 16.5307 23.2021 16.6807C22.9215 17.541 22.5481 18.2996 22.0889 18.2998C21.7621 18.2998 21.6005 17.9675 21.4326 17.6221C21.2511 17.2486 21.0615 16.8604 20.6484 16.8604C19.8534 16.8605 19.2092 17.5048 19.209 18.2998H19.2051V19.2461H19.2021C19.1776 20.0173 18.5466 20.6346 17.7695 20.6348C16.9923 20.6348 16.3615 20.0174 16.3369 19.2461H16.334V18.4189H16.332C16.3077 17.5167 15.6823 16.7932 14.9131 16.793C14.1437 16.793 13.5184 17.5165 13.4941 18.4189H13.4922V22.5605H13.4902C13.4653 23.3596 12.8108 23.9995 12.0059 24C11.2005 24 10.5455 23.3599 10.5205 22.5605H10.5186V19.4375H10.5166C10.4923 18.6764 9.86853 18.0667 9.10156 18.0664C8.33438 18.0664 7.71081 18.6762 7.68652 19.4375H7.68359V21.209C7.6766 21.1774 7.66988 21.1456 7.66504 21.1133C7.56251 21.798 6.96932 22.323 6.24902 22.3232C5.47164 22.3232 4.84077 21.7119 4.81641 20.9482H4.8125V18.2998H4.80859C4.80836 17.5047 4.16331 16.8604 3.36816 16.8604C2.98964 16.8604 2.86315 16.8874 2.73047 17.2295C2.58462 17.6056 2.43126 18 1.92871 18C1.33153 18 0.960665 17.2405 0.71582 16.3799C0.560084 15.8325 0.46005 15.5711 0.363281 15.0107C0.351069 14.94 0.332837 14.8403 0.317383 14.7529C0.10993 13.869 0 12.9472 0 12C0.000131936 5.3727 5.37364 0 12.001 0Z" fill="black"/>
</svg>
