<svg width="24" height="24" viewBox="0 0 24 24" fill="none" xmlns="http://www.w3.org/2000/svg">
<path d="M12.001 0C18.6281 0.000263871 24.0008 5.37286 24.001 12C24.001 12.8726 23.9376 13.6706 23.7607 14.4902L23.7197 14.6328C23.6412 15.0066 23.5146 15.6108 23.3418 16.2217L23.3408 16.2246C23.2976 16.3772 23.2511 16.5307 23.2021 16.6807C22.9215 17.541 22.5481 18.2996 22.0889 18.2998C21.7621 18.2998 21.6005 17.9675 21.4326 17.6221C21.2511 17.2486 21.0615 16.8604 20.6484 16.8604C19.8534 16.8605 19.2092 17.5048 19.209 18.2998H19.2051V22.3467H19.2031C19.1787 23.1217 18.5436 23.7421 17.7627 23.7422C17.0263 23.7421 16.4203 23.1903 16.333 22.4775V19.4375H16.3311C16.3068 18.6764 15.683 18.0667 14.916 18.0664C14.1488 18.0664 13.5253 18.6762 13.501 19.4375H13.499V21.1885H13.4961C13.4705 21.9851 12.8119 22.6228 12.001 22.623C11.1899 22.623 10.5315 21.9852 10.5059 21.1885H10.5029V21.0947C10.5012 21.1072 10.4981 21.1195 10.4961 21.1318V18.4082H10.4941C10.47 17.5036 9.84242 16.7785 9.07129 16.7783C8.30019 16.7785 7.67354 17.5036 7.64941 18.4082H7.64746V19.1963H7.64551C7.62158 19.9577 6.99766 20.5681 6.23047 20.5684C5.46305 20.5684 4.83937 19.9579 4.81543 19.1963H4.81348V18.2998H4.80859C4.80836 17.5047 4.16331 16.8604 3.36816 16.8604C2.98964 16.8604 2.86315 16.8874 2.73047 17.2295C2.58462 17.6056 2.43126 18 1.92871 18C1.33153 18 0.960665 17.2405 0.71582 16.3799C0.560084 15.8325 0.46005 15.5711 0.363281 15.0107C0.351069 14.94 0.332837 14.8403 0.317383 14.7529C0.10993 13.869 0 12.9472 0 12C0.000131936 5.3727 5.37364 0 12.001 0Z" fill="black"/>
</svg>
